<?xml version="1.0" encoding="UTF-8"?><!DOCTYPE svg PUBLIC "-//W3C//DTD SVG 1.1//EN" "http://www.w3.org/Graphics/SVG/1.1/DTD/svg11.dtd">
<svg xmlns="http://www.w3.org/2000/svg" role="img" title="Wohnzimmer" viewBox="0 0 80 80"><path d="M25.6 43h29.7c.4 0 .6-.3.6-.6V40H25v2.4c0 .3.3.6.6.6z" fill="#fff"></path><path d="M58 36v-7H23v7H12v19h4v2h7v-2h35v2h7v-2h4V36H58zm-33-5h31v11.4c0 .4-.3.6-.6.6H25.6c-.4 0-.6-.3-.6-.6V31zm42 22H14V38h9v4.4c0 1.5 1.2 2.6 2.6 2.6h29.7c1.5 0 2.6-1.2 2.6-2.6V38h9v15z" fill="#787878"></path><g fill="#d2d2d2"><path d="M23 55h35v2H23zM14 51h53v2H14z"></path></g></svg>
