<?xml version="1.0" encoding="UTF-8"?><!DOCTYPE svg PUBLIC "-//W3C//DTD SVG 1.1//EN" "http://www.w3.org/Graphics/SVG/1.1/DTD/svg11.dtd">
<svg xmlns="http://www.w3.org/2000/svg" role="img" title="Über Flügger" style="fill:#ffffff" viewBox="0 0 44 44"><path d="M23.9 12.6c-.6 0-1.2.2-1.6.7-.4.4-.6 1-.6 1.6s.2 1.2.7 1.6c.4.4 1 .7 1.6.7s1.2-.2 1.6-.7c.4-.4.7-1 .7-1.6s-.2-1.2-.7-1.6c-.6-.4-1.1-.7-1.7-.7zM18.4 21.1h.6c.3 0 .6.1.8.3s.3.4.3.6c0 .4-.1.5-.3 1.2L18.4 28c-.2.6-.3 1.1-.3 1.4 0 .6.2 1.1.6 1.4.4.4 1.7.6 2.3.6.9 0 2-.2 3.2-.8l-.6-1.5c-.6.3-.9.3-1.1.3-.1 0-.2 0-.3-.1-.1-.1-.1-.2-.1-.3 0-.2.1-.6.3-1.2l2.3-8.1c-2 .3-4.1.4-6.1.7l-.2.7z"></path><g><path d="M22.2 42c-11 0-20-9-20-20s9-20 20-20 20 9 20 20-9 20-20 20zm0-37.6C12.4 4.4 4.5 12.3 4.5 22s7.9 17.7 17.7 17.7S39.9 31.8 39.9 22s-8-17.6-17.7-17.6z"></path></g></svg>
