<?xml version="1.0" encoding="UTF-8"?><!DOCTYPE svg PUBLIC "-//W3C//DTD SVG 1.1//EN" "http://www.w3.org/Graphics/SVG/1.1/DTD/svg11.dtd">
<svg xmlns="http://www.w3.org/2000/svg" role="img" title="Farbkarten" style="fill:#ffffff" viewBox="0 0 44 44"><path d="M35.8 10c-8-8-20.9-8-28.8 0-3.8 3.8-6 9-6 14.4S3.1 35 7 38.8c.8.8 1.9 1.3 3.1 1.3 1.2 0 2.3-.5 3.1-1.3 1.7-1.7 1.7-4.5 0-6.2-.3-.3-.3-.7 0-1 .3-.3.7-.3 1 0l7.1 7.1c1.9 1.9 4.5 3 7.3 3s5.3-1.1 7.3-3c7.8-7.9 7.8-20.8-.1-28.7zm-1.4 27.4c-1.6 1.6-3.6 2.4-5.8 2.4s-4.3-.9-5.8-2.4l-7.1-7.1c-.5-.5-1.2-.8-1.9-.8s-1.4.3-1.9.8c-1 1-1 2.8 0 3.8.9.9.9 2.4 0 3.4-.9.9-2.5.9-3.4 0C4.9 33.9 3 29.3 3 24.4s1.9-9.5 5.4-13c7.2-7.2 18.8-7.2 26 0 7.1 7.1 7.1 18.8 0 26z"></path><circle cx="18.5" cy="13.5" r="2.5"></circle><circle cx="29" cy="16" r="3"></circle><circle cx="32.5" cy="27.5" r="3.5"></circle></svg>