<?xml version="1.0" encoding="utf-8"?>
<!-- Generator: Adobe Illustrator 23.0.0, SVG Export Plug-In . SVG Version: 6.00 Build 0)  -->
<svg version="1.1" id="Layer_1" xmlns="http://www.w3.org/2000/svg" xmlns:xlink="http://www.w3.org/1999/xlink" title="Professionelle" style="" viewBox="0 0 44 44">
<style type="text/css">
	.chel{fill:#FFFFFF;}
</style>
<path class="chel" d="M35.3 29.3L27 26.6v-3.1c1.6-1.3 4-4.4 4-8.4v-5c0-4-3-7-7-7h-4c-4 0-7 3-7 7v5c0 4 2 6.9 4 8.8v2.8l-8.3 2.7c-2.3.8-3.7 3-3.7 5.4V39h2v-4.3c0-1.6.9-3 2.4-3.6l2.6-.9V32l2 8h16l2-8v-1.8l2.6.9c1.5.5 2.4 2 2.4 3.6V39h2v-4.3c0-2.4-1.4-4.6-3.7-5.4zM15 10c0-2.9 2.1-5 5-5h4c2.9 0 5 2.1 5 5v4H15v-4zm.3 7l6.7-1 6.7 1c-.8 3.2-3.6 6-6.7 6-3.2 0-5.9-2.8-6.7-6zM22 38c-2.2 0-4-.9-4-2s1.8-2 4-2 4 .9 4 2-1.8 2-4 2zm6-6H16l-.8-2.9 3.8-1.3v-3.1c1 .3 2.1.2 3 .2 1 0 2 0 3-.4v3.2l3.8 1.3-.8 3z"></path><ellipse class="chel" cx="22" cy="10" rx="4" ry="2"></ellipse>
</svg>
