<?xml version="1.0" encoding="utf-8"?>
<!-- Generator: Adobe Illustrator 23.0.5, SVG Export Plug-In . SVG Version: 6.00 Build 0)  -->
<svg version="1.1" id="Слой_1" xmlns="http://www.w3.org/2000/svg" xmlns:xlink="http://www.w3.org/1999/xlink" x="0px" y="0px" fill="#ffffff" viewBox="0 0 44 44" style="enable-background:new 0 0 44 44;" xml:space="preserve">
    <path d="M22.5,3c-8,0-14,5.9-14,13.7c0,12.5,12.9,20.8,13.5,21.2l0.5,0.3l0.5-0.3c0.5-0.4,13.5-8.7,13.5-21.2
	C36.5,8.9,30.5,3,22.5,3z M22.5,35.8c-1.2-0.8-4.1-3-6.7-6.2c-3.5-4.2-5.3-8.6-5.3-12.9C10.5,10,15.7,5,22.5,5s12,5,12,11.7
	c0,4.3-1.8,8.7-5.3,12.9C26.6,32.8,23.7,35,22.5,35.8z" />
    <circle cx="22.5" cy="16.5" r="4.5" />
</svg>