<?xml version="1.0" encoding="UTF-8"?><!DOCTYPE svg PUBLIC "-//W3C//DTD SVG 1.1//EN" "http://www.w3.org/Graphics/SVG/1.1/DTD/svg11.dtd">
<svg xmlns="http://www.w3.org/2000/svg" role="img" title="Malerwerkzeug" style="fill:#ffffff" viewBox="0 0 44 44"><path d="M38.7 1H9.3C8 1 7 1.9 7 3.2V7H4c-.6 0-1 .4-1 1v9.6c0 .5.3.8.7 1L23 23.8V28h-.8c-.7 0-1.2.1-1.2.7v12.1c0 .7.5 1.2 1.2 1.2H26c.7 0 1-.5 1-1.2V28.7c0-.7-.3-.7-1-.7h-1v-5c0-.5-.3-.8-.7-1L5 16.8V9h2v3.7C7 14 8 15 9.3 15h29.4c1.3 0 2.3-1 2.3-2.3V3.2C41 1.9 40 1 38.7 1zm.3 11.7c0 .2-.1.3-.3.3H9.3c-.2 0-.3-.1-.3-.3V3.2c0-.2.1-.2.3-.2h29.4c.2 0 .3 0 .3.2v9.5z"></path></svg>