<?xml version="1.0" encoding="UTF-8"?><!DOCTYPE svg PUBLIC "-//W3C//DTD SVG 1.1//EN" "http://www.w3.org/Graphics/SVG/1.1/DTD/svg11.dtd">
<svg xmlns="http://www.w3.org/2000/svg" role="img" title="Farben und Tapeten" style="fill:#ffffff" viewBox="0 0 44 44"><path d="M36 11.4V11 6.8C36 4.3 24.6 3 20 3S4 4.4 4 7.2v27.5c0 4 9 5.3 13 5.3h6c4 0 13-1 13-5.3v-7.1c1.8-1.1 3-2.8 3.6-5.1 1.1-4.2-.5-9-3.6-11.1zM15 5h9c3.6 0 9 2 9 2s-2.7.7-9 1h-9L7 7s4.4-2 8-2zm19 24v5.2c0 1.9-7.7 3.8-11 3.8h-6c-2.3 0-11-1.4-11-3.3V17.3c0-.4.1-.7.5-.7s.5.4.5.7v7.2c0 1.2 1 2.2 2.2 2.2 1.2 0 2.2-1 2.2-2.2 0-.2.1-.3.3-.3s.3.1.3.3V28h2v-3.5c0-1.2-1-2.2-2.2-2.2s-2.2 1-2.2 2.2c0 .2-.1.3-.3.3-.1 0-.3-.1-.3-.3v-7.2c0-1.4-1-2.6-2.5-2.6-.2 0-.5 0-.5.1V8.7c1 .3 2.2.6 3.8.8 1.6.2 7.5.5 9.2.5 4.6 0 7.8 0 11-.5 1.7-.2 3-1 4-1.4v18.3c-.8.3-1.8.5-3 .5-8.9 0-10-10.6-10-11.1l-2 .2c0 .2 1.2 13 12 13 1.1 0 2.1-.1 3-.4v.4zm3.7-7c-.2.9-.7 2.1-1.7 3.1v-11c1.6 1.9 2.4 5.1 1.7 7.9z"></path></svg>