<?xml version="1.0" encoding="utf-8"?>
<!-- Generator: Adobe Illustrator 18.1.0, SVG Export Plug-In . SVG Version: 6.00 Build 0)  -->
<svg version="1.1" id="Layer_1" xmlns="http://www.w3.org/2000/svg" xmlns:xlink="http://www.w3.org/1999/xlink" x="0px" y="0px"
	 viewBox="0 0 113.5 241.9" enable-background="new 0 0 113.5 241.9" xml:space="preserve" fill="#112753">
<path d="M102.1,126c2-1.6,3.2-4.4,3-7.4c-0.1-2.5-1.3-7.3-2.2-9.6c-0.9-2.1-4.2-7.8-4.9-8.9c-0.7-1.1-1.8-2.5-4-3.4
	c-2.1-0.9-6.9-0.6-9.3,0.3l-6.2-3c-0.9-0.5-2.1-0.6-3.6,0.2c-1.2,0.7-2.7,2.3-3.3,3.7c-0.3,0.8-1.4,3.3-0.7,6.2
	c-1.6,0.9-5,1.5-6.4,1.6c-7.6-7.6-9-11.4-9.6-17.8v0c-0.3-5.5-3.9-10.3-7-14.2c-1.2-1.6-3.1-5.1-3.1-5.1V39.7
	c-0.1-0.4-0.7-0.6-1.1-0.7l0-2.2l16.9-10.3c0,0,0.7-0.7,0.7-1.2v-5.5c0-0.6-0.4-1.4-1.1-1.4c-0.4,0-1.1,0-1.7,0
	c-0.2-1.9-0.8-3.6-1.8-4.2H28.3c-1.1,0.6-1.8,2.8-1.8,5c0.1,2.2,0.7,4.3,1.8,5h28.3c1-0.6,1.7-2.4,1.8-4.4l1.3,0l0,5.6L42.9,35.5
	c0,0-0.7,0.7-0.7,1.1V39c0,0-1.1,0.3-1.1,0.8v27.6v6.8c-1.3-0.1-1.7,1.1-1.8,1.8c-0.3,1.4,0.8,2.7,0.7,2.7c-0.9,0.2-1.8,1.1-1.7,2.3
	c0,1.7,1.1,2.8,2,3.7c-2.6,0.9-1.6,4.2,0.1,5.8c-0.2,0.4-3,1,0.7,5.5l0,112.3v0c-2.4,0.6-5.5,2.7-5.7,6.7c-1.3,0.9-1.7,1.8-1.8,2.7
	c-0.2,1.1,0,2.5,0.1,2.8c0.1,0.3,0.3,0.8,0.6,1.1c0.7,0.7,1,1.1,0.7,2.5c-0.6,2.4,1.5,6.5,6.1,6.2v20.8c0.1,1.1,0.7,2.3,1.9,2.3
	c1.2,0,1.9-1.1,1.9-2.3v-20.6l9.5-0.1c-1.5,22.2-0.9,49.2,1.4,61.3c2.3,12.2,5.7,19.5,5.7,19.5c0.5,15,0.6,27.3-4.2,38
	c0.4,0.1,0.9,0.4,0.9,0.4c-0.2,0.6-1.5,1.1-2.5,1.3c-0.8,0.1-5.5,0.5-7.1,0.7c-2.5,0.4-4,1.7-4.9,4c-0.5,1.2-0.5,3-0.5,3
	c5.5,5.9,14,7.5,21.7,7c1.7,1.4,5.6,2,7.6,1.6c-0.6,1.3-7.8,1.7-11.1,2.1c-5.4,0.7-7.1,4.8-7.1,10.4c4.5,2.9,9.7,4.5,15.9,4.5
	c4.7,0.1,11-1.1,14.8-2.6c3.4,1.8,14.1,0.1,15.8-2.4c0.4-0.6-0.2-3-0.2-3s0.8-1.7,0.8-3.9c0-2.3-0.4-4-0.8-5l2-0.6
	c-2.2-17.1-2.7-22.1-3.1-25.5c-0.6-5.1-2.4-23.6-7.3-38.2c-2-6-3-35.4-1.8-44.5c5.7-4.9,8.4-13.2,8.4-22.9c0-5.9-2.7-10.3-7-19.3
	v-5.2c2.7-3.1,8.6-16.8,9.4-23.9c0.9-8.8,0-21.7-0.8-25.6c-1.2-5.2-4.3-15.3-6.5-19.4l0.4-0.9c0,0,0.3-0.7-0.1-1.5l-2.5-3.1
	l-3.6-4.1l6.8-2.5C95,130.1,100.3,127.5,102.1,126z M64.1,119.8c1.1-0.5,1.3-1.3,0.8-1.9c-0.6-0.7-0.4-1.3,0.2-1.7
	c0.3-0.2,1.8-0.6,1.5-0.9c-0.3-0.3-1.2-1.1-1.5-1.7c0.6-0.1,1.8-1.1,2-1.4c0.2-0.3,0.2-0.2-0.1-0.7c-0.3-0.5-0.9-1.6-1.1-2.5
	c1.8,0.1,7.6-1.6,9.3-2.6c-0.6,2.6,2.5,7.2,1.2,12.5c0,0,0.5,0.4,0.5,0.4c0.3-0.1,0.5-0.3,0.9-0.5c1.3-0.5,2.6,0.1,3.5,1.6
	c0.8,1.3,0.3,3.4-0.9,4.4c-0.4,0.3-0.7,0.5-1.1,0.5c0,0,0,1,0,1c3.8,2.8,4.6,5.4,6.6,8.7c-1.6,2.5-10.3,8.5-17.1,10.5
	c2.4-7.7,1.4-15.6-3.9-20.6C62.6,122.8,62.7,120.4,64.1,119.8z M63.2,111.2c-0.8,1.5-2.8,7.6-3.3,10.5c-0.2,1.6,0.3,3.8,1.3,4.7
	c2.2,1.9,3.5,4,4.3,6.7c1,3.2,1.1,9.7-1.1,14c-1.7-9.1-9.9-25.1-14.7-33.4l7.9-9.7C57.8,104.1,62.7,110.3,63.2,111.2z M56.9,184.3
	c-1.3,3.3-4.3,12.2-5.5,16.6c-1.9,0.2-5.5,3.6-6.6,5.5v-103l3.6,5.3l-3,4.3c8.6,14.6,15.2,30.5,16.7,39.5c0.1,0.8,0,0.9-0.3,1.3
	C57.5,161,55.7,174,56.9,184.3z M44.8,74.1c0.9,3.1,5.9,6.8,6.9,13.6c0.5,3.4,0.6,7.7,3.5,12.5l-4.5,5.7c-2.1-2.2-4.6-6.6-5.9-8.9
	c0,0,1.2,0,1.3-1.4c0.1-1.3-1.4-2.7-1.4-2.7c0.4,0.4,2.5,1.3,2.8-1.3c0.2-1.9-2-3.1-2.8-3.8c0,0,1.9,1.2,2.6-0.4
	c0.8-1.8-0.6-3.5-2.5-4.8c1.1,0.3,1.6,0,1.8-1c0.3-1.7-1.8-3.8-1.8-3.8S44.8,74.1,44.8,74.1z M43,227c-3.3-0.1-4.8-1.9-4.5-3
	c0.3-1.1,0.4-2.2-0.7-3.2c-1.1-0.9-1.1-3.1,0.4-4c0.9-0.5,1.5-1.1,1.6-2.4c0.1-2.1,1.8-3.1,3.1-3.3c-1.2,2.5,0,13.5,5.7,15.8
	C48.6,227,45.5,227.1,43,227z M50.3,224.5c-1.7-1.6-3.9-5.9-4.2-10.4c-0.2-4.1,3.4-9.2,8.6-10.7c1.4-5.3,5.1-16,6.1-18.6
	c1.4-4,4.2-11.2,7.6-15.7c2.2-2.9,5.4-4,8.7-3.9c4.5,0.2,7.9,2.9,9.6,7.4c1.9,5.1,0.5,10.9-1.9,16.6c-1.8,4.4-5,12.7-11.2,19.7
	c-3.6,4.1-13.8,14.9-17.5,16.9C53.9,226.8,52.3,226.4,50.3,224.5z M65.1,361.5c-3.8,1.1-13.6,0-17.8-4c0.3-1.2,1.4-2.8,2.8-2.9
	c0.8,0,4-0.2,5.9-0.2c1.9-0.1,4.9-0.9,5.9-3.1c1.9,1.1,6.7,2.8,11.6,3c0.1,1.2,0.4,6.7-0.3,9.1C70.9,364.1,67.7,363.3,65.1,361.5z
	 M65.3,319.6c4.2,9.4,7.5,20.3,7.8,30.6c-3.2-0.3-7.4-1.2-11-2.8C65,340.7,66.1,328.3,65.3,319.6z M96.8,376.9
	c-2.2,1.3-8.6,2.8-12.4,0.7c-7.6,2.7-19.3,4-25.9,0.5c0.1-1.8,0-5.2,4-5.7c7.1-1,11.9-0.8,15.7-5c3.8,0.9,11,2.1,18.9,0.8
	c0.4,0.4,1.1,2.4,1.1,4.3C98.2,374.4,97.7,375.8,96.8,376.9z M97.1,163.6c1.3,7.6,1.1,18.3,0.6,22.4c-0.7,6-4.8,18.5-8.3,22.6
	c-1,1.2-1.5,2.5-1.4,3.5l0,3.8c0.1,1,0.2,1.6,0.6,2.4c2.4,4.7,6.5,9.6,6.7,17.2c0.2,6.4-2,16.5-8.9,21.3c-0.5,7.7-0.6,25,0.2,31.7
	c0.4,3.6,0.5,12.6,2.5,17.8c2.6,7,6,28,6.4,32.9c0.2,2.7,1.8,17.6,2.8,24.4c-3.9,1.8-16,1.8-21.1-0.4c1.1-7.5-0.7-21.3-2.8-29
	c-1.7-6.5-8.5-22.4-9.6-25.2c-3-7.4-5.5-16.8-6.6-27.6c-0.6-6.8-1-16.7-1-18.3c-0.3-10,0.6-29.6,1.1-34.3c1.4-1,5.5-4.5,8.4-7
	c4.5-4,9.6-10.2,12.8-14.1c3.7-4.4,8.8-16.8,10.2-20.8c1.5-4.4,2.1-10,0.8-14.5c-1.1-4-3-6.7-6.8-9c-5.7-3.4-11.4-2.7-16.8,1.6
	c-2.4,2-5,6.8-6.7,11c0.2-8.5,3.4-18.1,7.7-24.7l5.4,8.1c1.9-0.4,4.6-1.7,6.3-2.6c3.3-1.8,9.1-6.7,11.8-9.8
	C94.2,151.4,96.4,159.1,97.1,163.6z M90.5,141.3c-1.8,2.8-9.5,11-15.7,13.1l-3.5-5.4c6.2-2.3,14.2-7.9,16.9-10.3L90.5,141.3z
	 M82.4,111.7c-5.7-0.4-10.4-8.7-6.3-14.4c0,0,8,3.5,8.3,4.3c0.9-0.9,3.4-1.1,4.5-1.2c2.5-0.3,4.2,0.2,5.7,2.1
	c1.5,1.8,3.6,5.7,4.5,7.9c1,2.3,2.1,6,2,8.9c-0.1,2-1.1,3.5-3,4.8c-1.4,1-3.5,2.1-5.7,2.8C88.2,124,83.4,118,82.4,111.7z"/>
</svg>
